HIERARCHY
ROOT Hips
{
	OFFSET 0.000000 97.167313 0.000000
	CHANNELS 6 Xposition Yposition Zposition Xrotation Yrotation Zrotation
	JOINT Spine
	{
		OFFSET 0.000000 13.784798 0.064400
		CHANNELS 3 Xrotation Yrotation Zrotation
		JOINT Spine1
		{
			OFFSET 0.000000 12.037903 0.404700
			CHANNELS 3 Xrotation Yrotation Zrotation
			JOINT Spine2
			{
				OFFSET 0.000000 17.795601 0.420200
				CHANNELS 3 Xrotation Yrotation Zrotation
				JOINT Neck
				{
					OFFSET 0.000000 39.131302 11.954600
					CHANNELS 3 Xrotation Yrotation Zrotation
					JOINT Head
					{
						OFFSET 0.000000 14.456192 15.627699
						CHANNELS 3 Xrotation Yrotation Zrotation
						JOINT HeadTop_End
						{
							OFFSET 0.000000 15.703506 7.603401
							CHANNELS 3 Xrotation Yrotation Zrotation
							End Site
							{
								OFFSET 0.000000 17.447403 0.000000
							}
						}
					}
				}
				JOINT LeftShoulder
				{
					OFFSET 17.399500 24.608795 1.168800
					CHANNELS 3 Xrotation Yrotation Zrotation
					JOINT LeftArm
					{
						OFFSET 18.980635 5.765305 1.818600
						CHANNELS 3 Xrotation Yrotation Zrotation
						JOINT LeftForeArm
						{
							OFFSET 49.290169 0.000000 0.000000
							CHANNELS 3 Xrotation Yrotation Zrotation
							JOINT LeftHand
							{
								OFFSET 31.562012 0.000000 0.000000
								CHANNELS 3 Xrotation Yrotation Zrotation
								JOINT LeftHandThumb1
								{
									OFFSET 6.133995 -4.388519 7.076070
									CHANNELS 3 Xrotation Yrotation Zrotation
									JOINT LeftHandThumb2
									{
										OFFSET 6.037666 -3.485840 3.485847
										CHANNELS 3 Xrotation Yrotation Zrotation
										JOINT LeftHandThumb3
										{
											OFFSET 6.496506 -3.750763 3.750761
											CHANNELS 3 Xrotation Yrotation Zrotation
											JOINT LeftHandThumb4
											{
												OFFSET 5.616882 -3.242905 3.242910
												CHANNELS 3 Xrotation Yrotation Zrotation
												End Site
												{
													OFFSET -1.254608 7.132141 0.375429
												}
											}
										}
									}
								}
								JOINT LeftHandPinky1
								{
									OFFSET 18.920792 -0.453171 -11.426712
									CHANNELS 3 Xrotation Yrotation Zrotation
									JOINT LeftHandPinky2
									{
										OFFSET 4.919586 0.000000 0.000000
										CHANNELS 3 Xrotation Yrotation Zrotation
										JOINT LeftHandPinky3
										{
											OFFSET 5.233047 0.000000 0.000000
											CHANNELS 3 Xrotation Yrotation Zrotation
											JOINT LeftHandPinky4
											{
												OFFSET 5.571716 0.000000 0.000000
												CHANNELS 3 Xrotation Yrotation Zrotation
												End Site
												{
													OFFSET -3.459808 4.342407 -0.466164
												}
											}
										}
									}
								}
								JOINT LeftHandRing1
								{
									OFFSET 22.726120 -0.094986 -6.500475
									CHANNELS 3 Xrotation Yrotation Zrotation
									JOINT LeftHandRing2
									{
										OFFSET 6.408615 0.000000 0.000000
										CHANNELS 3 Xrotation Yrotation Zrotation
										JOINT LeftHandRing3
										{
											OFFSET 6.150223 0.000000 0.000000
											CHANNELS 3 Xrotation Yrotation Zrotation
											JOINT LeftHandRing4
											{
												OFFSET 6.145386 0.000000 0.000000
												CHANNELS 3 Xrotation Yrotation Zrotation
												End Site
												{
													OFFSET -3.671402 4.923981 -0.202372
												}
											}
										}
									}
								}
								JOINT LeftHandMiddle1
								{
									OFFSET 23.373947 0.000000 0.000001
									CHANNELS 3 Xrotation Yrotation Zrotation
									JOINT LeftHandMiddle2
									{
										OFFSET 6.996567 0.000000 0.000000
										CHANNELS 3 Xrotation Yrotation Zrotation
										JOINT LeftHandMiddle3
										{
											OFFSET 7.015945 0.000000 0.000000
											CHANNELS 3 Xrotation Yrotation Zrotation
											JOINT LeftHandMiddle4
											{
												OFFSET 7.721573 0.000000 0.000000
												CHANNELS 3 Xrotation Yrotation Zrotation
												End Site
												{
													OFFSET -4.651108 6.158463 0.251582
												}
											}
										}
									}
								}
								JOINT LeftHandIndex1
								{
									OFFSET 21.310577 -0.490082 6.209344
									CHANNELS 3 Xrotation Yrotation Zrotation
									JOINT LeftHandIndex2
									{
										OFFSET 7.536453 0.000000 0.000000
										CHANNELS 3 Xrotation Yrotation Zrotation
										JOINT LeftHandIndex3
										{
											OFFSET 7.512344 0.000000 0.000000
											CHANNELS 3 Xrotation Yrotation Zrotation
											JOINT LeftHandIndex4
											{
												OFFSET 10.212402 0.000000 0.000001
												CHANNELS 3 Xrotation Yrotation Zrotation
												End Site
												{
													OFFSET -5.180801 8.690506 1.388433
												}
											}
										}
									}
								}
							}
						}
					}
				}
				JOINT RightShoulder
				{
					OFFSET -17.399500 24.608795 1.168800
					CHANNELS 3 Xrotation Yrotation Zrotation
					JOINT RightArm
					{
						OFFSET -18.980635 5.765305 1.818600
						CHANNELS 3 Xrotation Yrotation Zrotation
						JOINT RightForeArm
						{
							OFFSET -49.290169 0.000000 0.000000
							CHANNELS 3 Xrotation Yrotation Zrotation
							JOINT RightHand
							{
								OFFSET -31.562012 0.000000 0.000000
								CHANNELS 3 Xrotation Yrotation Zrotation
								JOINT RightHandThumb1
								{
									OFFSET -6.133995 -4.388519 7.076070
									CHANNELS 3 Xrotation Yrotation Zrotation
									JOINT RightHandThumb2
									{
										OFFSET -6.037666 -3.485840 3.485847
										CHANNELS 3 Xrotation Yrotation Zrotation
										JOINT RightHandThumb3
										{
											OFFSET -6.496506 -3.750763 3.750761
											CHANNELS 3 Xrotation Yrotation Zrotation
											JOINT RightHandThumb4
											{
												OFFSET -5.616882 -3.242905 3.242910
												CHANNELS 3 Xrotation Yrotation Zrotation
												End Site
												{
													OFFSET 1.254608 7.132141 0.375429
												}
											}
										}
									}
								}
								JOINT RightHandIndex1
								{
									OFFSET -21.310577 -0.490082 6.209344
									CHANNELS 3 Xrotation Yrotation Zrotation
									JOINT RightHandIndex2
									{
										OFFSET -7.536453 0.000000 0.000000
										CHANNELS 3 Xrotation Yrotation Zrotation
										JOINT RightHandIndex3
										{
											OFFSET -7.512344 0.000000 0.000000
											CHANNELS 3 Xrotation Yrotation Zrotation
											JOINT RightHandIndex4
											{
												OFFSET -10.212402 0.000000 0.000001
												CHANNELS 3 Xrotation Yrotation Zrotation
												End Site
												{
													OFFSET 5.180801 8.690506 1.388433
												}
											}
										}
									}
								}
								JOINT RightHandMiddle1
								{
									OFFSET -23.373947 0.000000 0.000001
									CHANNELS 3 Xrotation Yrotation Zrotation
									JOINT RightHandMiddle2
									{
										OFFSET -6.996567 0.000000 0.000000
										CHANNELS 3 Xrotation Yrotation Zrotation
										JOINT RightHandMiddle3
										{
											OFFSET -7.015945 0.000000 0.000000
											CHANNELS 3 Xrotation Yrotation Zrotation
											JOINT RightHandMiddle4
											{
												OFFSET -7.721573 0.000000 0.000000
												CHANNELS 3 Xrotation Yrotation Zrotation
												End Site
												{
													OFFSET 4.651108 6.158463 0.251582
												}
											}
										}
									}
								}
								JOINT RightHandRing1
								{
									OFFSET -22.726120 -0.094986 -6.500475
									CHANNELS 3 Xrotation Yrotation Zrotation
									JOINT RightHandRing2
									{
										OFFSET -6.408615 0.000000 0.000000
										CHANNELS 3 Xrotation Yrotation Zrotation
										JOINT RightHandRing3
										{
											OFFSET -6.150223 0.000000 0.000000
											CHANNELS 3 Xrotation Yrotation Zrotation
											JOINT RightHandRing4
											{
												OFFSET -6.145386 0.000000 0.000000
												CHANNELS 3 Xrotation Yrotation Zrotation
												End Site
												{
													OFFSET 3.671402 4.923981 -0.202372
												}
											}
										}
									}
								}
								JOINT RightHandPinky1
								{
									OFFSET -18.920792 -0.453171 -11.426712
									CHANNELS 3 Xrotation Yrotation Zrotation
									JOINT RightHandPinky2
									{
										OFFSET -4.919586 0.000000 0.000000
										CHANNELS 3 Xrotation Yrotation Zrotation
										JOINT RightHandPinky3
										{
											OFFSET -5.233047 0.000000 0.000000
											CHANNELS 3 Xrotation Yrotation Zrotation
											JOINT RightHandPinky4
											{
												OFFSET -5.571716 0.000000 0.000000
												CHANNELS 3 Xrotation Yrotation Zrotation
												End Site
												{
													OFFSET 3.459808 4.342407 -0.466164
												}
											}
										}
									}
								}
							}
						}
					}
				}
			}
		}
	}
	JOINT LeftUpLeg
	{
		OFFSET 19.899099 -7.885101 -3.429500
		CHANNELS 3 Xrotation Yrotation Zrotation
		JOINT LeftLeg
		{
			OFFSET 1.745560 -36.997807 10.304700
			CHANNELS 3 Xrotation Yrotation Zrotation
			JOINT LeftFoot
			{
				OFFSET -1.745558 -29.803308 -13.615400
				CHANNELS 3 Xrotation Yrotation Zrotation
				JOINT LeftToeBase
				{
					OFFSET 1.181900 -18.539904 15.226099
					CHANNELS 3 Xrotation Yrotation Zrotation
					JOINT LeftToe_End
					{
						OFFSET -0.863701 1.402801 16.534700
						CHANNELS 3 Xrotation Yrotation Zrotation
						End Site
						{
							OFFSET 0.000000 16.616566 0.000000
						}
					}
				}
			}
		}
	}
	JOINT RightUpLeg
	{
		OFFSET -19.899099 -7.885101 -3.429500
		CHANNELS 3 Xrotation Yrotation Zrotation
		JOINT RightLeg
		{
			OFFSET -1.745560 -36.997807 10.304700
			CHANNELS 3 Xrotation Yrotation Zrotation
			JOINT RightFoot
			{
				OFFSET 1.745558 -29.803308 -13.615400
				CHANNELS 3 Xrotation Yrotation Zrotation
				JOINT RightToeBase
				{
					OFFSET -1.181900 -18.539904 15.226099
					CHANNELS 3 Xrotation Yrotation Zrotation
					JOINT RightToe_End
					{
						OFFSET 0.863701 1.402801 16.534700
						CHANNELS 3 Xrotation Yrotation Zrotation
						End Site
						{
							OFFSET 0.000000 16.616566 0.000000
						}
					}
				}
			}
		}
	}
}
MOTION
Frames: 4
Frame Time: 0.033333
0.103201 71.860931 6.263227 21.058373 -48.489077 17.824967 26.349425 0.488054 -4.928463 13.235089 -3.655804 2.940266 20.036227 -8.416391 -2.498086 -25.469569 13.645996 -12.956421 -49.919401 33.199022 27.459565 -0.000000 0.000000 0.000001 -0.343935 -4.728897 -20.408563 -42.833592 27.843876 -36.079064 0.511994 -58.775977 0.933924 -37.162424 7.704424 -8.187939 40.109941 -15.297177 -0.360451 5.639821 28.097966 11.338804 1.088477 40.896236 22.734080 0.000005 0.000001 0.000000 -17.946915 14.754986 -51.485918 8.868471 8.667027 -84.811989 4.540486 8.852526 -59.152997 -0.000000 0.000002 0.000001 -9.042489 10.045676 -60.766253 8.524122 9.508806 -66.893035 6.576557 9.896719 -70.385093 -0.000000 0.000002 0.000003 -2.345533 4.688807 -62.655286 8.754148 9.897111 -87.051273 1.995377 4.929324 -37.483416 -0.000002 0.000001 0.000004 6.882279 2.839991 -61.140486 8.247976 7.640022 -89.897809 2.146125 8.173436 -41.827734 0.000001 0.000003 0.000001 8.105683 10.192250 -15.349657 -52.422921 -17.117002 63.928535 -0.439437 38.561575 0.095287 30.334625 -0.563210 -19.336122 0.312844 1.078188 1.639853 2.226171 -10.473350 -5.463821 -1.647174 1.862161 -0.585142 -0.000002 -0.000004 0.000002 0.226312 4.501577 -15.339647 1.360297 -3.947819 33.554855 0.048040 -3.781212 9.035476 -0.000000 -0.000001 0.000003 0.079369 -3.100133 -1.405836 0.562216 -3.826415 19.589196 0.053087 0.362751 2.806899 0.000000 0.000001 -0.000004 0.627173 -9.774660 6.558688 0.390778 -2.056260 16.599153 0.246289 -2.762247 12.525073 -0.000000 -0.000002 -0.000003 -0.114223 -20.279926 9.355901 1.473537 -4.124468 31.843291 0.206058 1.186408 -12.458532 -0.000002 -0.000006 0.000003 -69.452382 -6.992027 8.264581 82.542857 2.867710 1.866577 15.644676 -2.361361 -10.470386 -17.173537 2.312929 -6.850942 0.000002 -0.000000 -0.000001 -31.865168 -7.611183 5.424142 66.056631 2.477378 -3.003400 -46.139342 9.439553 -9.467432 0.500943 -5.720073 0.000004 -0.000000 0.000001 0.000000 
-11.372939 71.417366 5.952659 22.804770 -48.420078 20.810859 25.728880 1.939330 -6.945965 13.236254 -2.817751 1.325737 19.965106 -7.704223 -4.133528 -25.130786 12.715568 -12.645869 -48.390466 30.412244 26.735184 -0.000000 -0.000000 0.000000 0.010209 -3.871458 -19.955912 -42.767530 24.542558 -35.504249 0.507173 -58.979612 0.930892 -36.077711 7.861870 -7.890465 40.109944 -15.297179 -0.360452 5.639817 28.097967 11.338800 1.088474 40.896236 22.734081 0.000005 0.000001 -0.000001 -17.946916 14.754993 -51.485922 8.868474 8.667025 -84.811989 4.540484 8.852529 -59.153004 0.000000 0.000002 -0.000004 -9.042492 10.045677 -60.766253 8.524120 9.508805 -66.893029 6.576561 9.896718 -70.385093 0.000001 -0.000001 0.000002 -2.345536 4.688809 -62.655286 8.754148 9.897110 -87.051280 1.995374 4.929327 -37.483412 0.000001 -0.000001 0.000002 6.882280 2.839991 -61.140486 8.247978 7.640023 -89.897809 2.146127 8.173431 -41.827727 0.000001 0.000001 -0.000001 8.252216 10.388515 -16.253706 -50.502279 -19.897738 64.811125 -0.518595 40.800436 0.134036 28.329444 1.712169 -15.514235 0.312842 1.078188 1.639847 2.226168 -10.473357 -5.463817 -1.530620 1.411640 -0.826231 -0.000001 -0.000001 0.000001 0.346949 4.902925 -17.999826 1.163787 -3.637712 31.022938 0.002453 -3.455149 6.855457 0.000000 -0.000003 0.000003 0.093606 -2.765547 -3.442038 0.419264 -3.391571 16.752776 0.042820 0.677225 0.905929 0.000002 0.000003 0.000001 0.551858 -9.776029 5.769196 0.323052 -1.818252 15.153801 0.121402 -2.092851 8.601957 -0.000002 0.000000 -0.000005 -0.076691 -20.480063 10.562656 1.691820 -4.459431 34.185039 0.113772 0.711194 -9.506353 -0.000001 0.000001 0.000002 -79.819537 4.319773 1.554004 74.512617 3.412247 2.806532 19.469106 -3.680928 -11.354173 -11.316703 -2.416388 9.500383 -0.000001 0.000000 -0.000001 -20.970038 -6.969627 13.322092 61.495731 -0.185130 -4.470626 -49.883388 8.638809 -12.745463 -4.791992 -4.626032 -3.940430 -0.000000 0.000000 0.000000 
-23.589998 71.997589 5.617854 23.255718 -49.033918 22.033618 24.654710 4.484875 -9.187377 13.968422 -1.925764 0.206249 20.664415 -6.799475 -5.256506 -24.777280 11.566796 -12.610950 -46.940608 27.921878 26.628495 0.000000 -0.000000 -0.000001 0.446642 -2.830981 -18.716004 -42.553171 21.096796 -36.527906 0.491305 -59.594808 0.931149 -33.411527 9.055687 -6.972415 40.109941 -15.297179 -0.360456 5.639822 28.097967 11.338800 1.088477 40.896236 22.734073 0.000004 0.000001 -0.000002 -17.946916 14.754990 -51.485922 8.868472 8.667027 -84.811989 4.540485 8.852525 -59.153004 0.000000 0.000002 -0.000005 -9.042491 10.045673 -60.766253 8.524120 9.508806 -66.893035 6.576559 9.896721 -70.385093 0.000001 0.000000 -0.000000 -2.345536 4.688812 -62.655292 8.754147 9.897107 -87.051280 1.995377 4.929323 -37.483412 0.000002 -0.000000 0.000004 6.882280 2.839992 -61.140486 8.247985 7.640028 -89.897809 2.146128 8.173432 -41.827723 -0.000000 0.000005 0.000000 8.568033 10.884931 -17.047189 -47.851540 -22.700967 65.177388 -0.612708 43.767873 0.169652 26.003037 4.178006 -11.750237 0.312839 1.078188 1.639849 2.226173 -10.473353 -5.463826 -1.236924 0.239053 -1.448105 -0.000001 -0.000002 -0.000000 0.460030 5.228523 -20.189768 1.002003 -3.356835 28.788947 -0.028764 -3.151202 4.833654 -0.000000 -0.000005 -0.000002 0.109358 -2.546382 -4.777949 0.322635 -3.047064 14.537095 0.042354 0.946439 -0.720404 -0.000000 0.000000 -0.000009 0.576491 -9.775608 6.027539 0.288437 -1.686825 14.360283 0.059407 -1.600509 5.744816 -0.000001 0.000000 -0.000005 0.041927 -20.996008 13.705367 2.321650 -5.285251 40.278609 -0.010467 -0.539282 -1.842014 -0.000000 -0.000002 0.000005 -83.045955 14.896407 -3.488676 60.690957 3.770179 3.862927 25.963436 -4.717850 -9.857932 -0.466646 -0.690841 8.197801 -0.000001 0.000002 -0.000000 -8.003367 -4.485862 20.815022 50.268700 -3.544113 -5.537519 -47.495930 8.877611 -14.859082 -15.703792 -2.374920 -12.064608 0.000001 0.000002 0.000000 
-36.318394 73.235672 5.419319 23.069727 -50.157573 21.971974 23.320738 7.690077 -11.102203 14.897674 -1.310235 -0.400688 21.604203 -6.077509 -5.830304 -24.482577 10.458719 -12.616736 -45.909233 26.191455 27.110617 0.000000 0.000000 -0.000002 0.857450 -1.739727 -16.994219 -42.359699 18.777476 -37.987979 0.476877 -60.355438 0.937290 -30.384206 11.035175 -6.131241 40.109938 -15.297180 -0.360451 5.639825 28.097966 11.338800 1.088474 40.896236 22.734081 -0.000000 -0.000001 -0.000001 -17.946916 14.754991 -51.485925 8.868470 8.667030 -84.811989 4.540484 8.852525 -59.153004 0.000001 -0.000000 -0.000004 -9.042491 10.045674 -60.766246 8.524120 9.508805 -66.893042 6.576560 9.896718 -70.385099 0.000000 0.000001 0.000005 -2.345538 4.688809 -62.655292 8.754145 9.897110 -87.051280 1.995377 4.929331 -37.483416 0.000003 -0.000001 0.000006 6.882278 2.839992 -61.140486 8.247973 7.640024 -89.897809 2.146127 8.173441 -41.827727 -0.000002 0.000005 0.000000 8.868554 11.579355 -16.818967 -44.805235 -23.841923 64.732196 -0.740878 47.084421 0.246993 23.375696 6.593321 -8.185670 0.312843 1.078189 1.639855 2.226170 -10.473350 -5.463829 -0.847703 -1.404592 -2.307121 -0.000001 -0.000002 0.000001 0.550756 5.463871 -21.792618 0.876930 -3.120853 26.948848 -0.047374 -2.881756 3.046618 -0.000000 -0.000002 0.000003 0.116789 -2.462538 -5.289372 0.266217 -2.817772 13.075615 0.047358 1.157344 -1.995028 -0.000000 0.000001 -0.000009 0.840363 -9.769703 8.790300 0.298040 -1.723886 14.583958 0.035601 -1.326165 4.159909 0.000001 -0.000002 -0.000003 0.259025 -21.705028 18.117218 3.343196 -6.317683 48.822155 0.097100 -2.290588 8.870515 -0.000000 -0.000005 -0.000000 -80.855021 23.835706 -6.925796 45.948052 5.838310 4.645198 34.989676 -7.267086 -3.026340 5.433846 -0.000038 -0.000010 -0.000001 0.000002 0.000004 6.298932 -0.293914 26.329597 31.848380 -3.426119 -5.385460 -37.671608 10.469500 -18.402796 -25.018088 -0.434871 -18.997020 0.000001 0.000003 0.000000 
